<?xml version="1.0" encoding="UTF-8" standalone="no"?>
<!-- Generator: Adobe Illustrator 25.2.1, SVG Export Plug-In . SVG Version: 6.00 Build 0)  -->

<svg
   xmlns:dc="http://purl.org/dc/elements/1.1/"
   xmlns:cc="http://creativecommons.org/ns#"
   xmlns:rdf="http://www.w3.org/1999/02/22-rdf-syntax-ns#"
   xmlns:svg="http://www.w3.org/2000/svg"
   xmlns="http://www.w3.org/2000/svg"
   xmlns:sodipodi="http://sodipodi.sourceforge.net/DTD/sodipodi-0.dtd"
   xmlns:inkscape="http://www.inkscape.org/namespaces/inkscape"
   version="1.1"
   id="Ebene_1"
   x="0px"
   y="0px"
   viewBox="0 0 78.200298 78.200288"
   xml:space="preserve"
   sodipodi:docname="02_Data_Slicer_Logo.svg"
   width="78.200294"
   height="78.200287"
   inkscape:version="0.92.4 (5da689c313, 2019-01-14)"
   inkscape:export-filename="/home/kevin/Documents/qmap/analysis/data_slicer/img/02_Data_Slicer_Logo.png"
   inkscape:export-xdpi="386.70001"
   inkscape:export-ydpi="386.70001"><metadata
   id="metadata37"><rdf:RDF><cc:Work
       rdf:about=""><dc:format>image/svg+xml</dc:format><dc:type
         rdf:resource="http://purl.org/dc/dcmitype/StillImage" /><dc:title></dc:title></cc:Work></rdf:RDF></metadata><defs
   id="defs35"><clipPath
     clipPathUnits="userSpaceOnUse"
     id="clipPath971"><path
       d="M 73.36,63.53 H 62.68 61.1 60.34 57.52 52.39 v 0 l -0.06,-5.31 c 0.1,0.03 0.2,0.05 0.3,0.05 0.03,0 0.05,0 0.08,0 0.3,-0.02 0.57,-0.16 0.76,-0.38 0.19,-0.22 0.29,-0.51 0.27,-0.81 -0.02,-0.3 -0.16,-0.57 -0.38,-0.76 l -3.03,-2.65 c 0.08,-0.05 0.15,-0.09 0.22,-0.17 0.97,-1.11 2.62,-17.41 2.24,-19.3 C 52.5,32.8 50.18,29.14 48.12,25.92 47.19,24.45 46.3,23.07 45.79,22.17 44.64,20.14 42.5,18.64 38.24,15.67 36.55,14.49 34.45,13.02 31.97,11.2 31.24,10.66 28.6,7.03 26.2,3.7 29.73,2.5 33.51,1.84 37.44,1.84 c 19.36,0 35.11,15.75 35.11,35.11 0,9.98 -4.19,18.99 -10.9,25.39 l -0.4,0.38 h 0.72 v 0 C 68.78,56.23 73.04,47.08 73.04,36.95 73.04,17.32 57.07,1.34 37.43,1.34 33.39,1.34 29.51,2.03 25.88,3.27 25.8,3.3 25.71,3.32 25.63,3.35 25.55,3.38 25.46,3.4 25.38,3.43 21.21,4.93 17.4,7.2 14.11,10.06 c -0.06,0.06 -0.13,0.11 -0.19,0.16 -0.06,0.06 -0.13,0.11 -0.19,0.17 C 6.45,16.92 1.84,26.4 1.84,36.95 c 0,19.63 15.97,35.61 35.61,35.61 3.47,0 6.82,-0.51 10,-1.44 1.93,-0.57 3.79,-1.28 5.57,-2.15 2.09,-1.02 4.05,-2.24 5.89,-3.63 v 0 l 0.03,-0.02 C 58.96,65.3 58.98,65.29 59,65.27 v 0 l 0.48,-0.38 h -0.81 c -1.76,1.34 -3.66,2.52 -5.66,3.52 -1.93,0.96 -3.96,1.74 -6.07,2.34 -3.02,0.85 -6.21,1.32 -9.5,1.32 -19.36,0 -35.11,-15.75 -35.11,-35.11 0,-10.41 4.56,-19.77 11.78,-26.21 2.41,2.26 4.91,4.88 5.41,6.84 1.31,5.13 4.94,10.04 7.69,12.06 0.73,0.54 1.8,2.08 2.98,3.9 -0.33,0.27 -0.7,0.51 -1.11,0.68 -0.2,0.08 -0.46,0.16 -0.76,0.24 L 13.21,21.27 C 13,21.07 12.71,20.98 12.41,21 c -0.3,0.02 -0.57,0.16 -0.76,0.38 -0.2,0.22 -0.29,0.51 -0.27,0.81 0.02,0.3 0.16,0.57 0.38,0.76 L 25.7,35.12 c -1.27,0.37 -2.47,0.89 -3.02,1.79 -0.31,0.52 -0.38,1.13 -0.19,1.8 l 0.05,0.19 0.2,-0.01 c 1.63,-0.05 4.17,-0.13 6.46,-0.72 l 3.57,3.12 c -2.66,1.41 -4.96,2.85 -4.15,5.8 l 0.08,0.28 0.27,-0.12 c 0.68,-0.3 1.52,-0.64 2.49,-1.03 1.45,-0.58 3.1,-1.25 4.68,-1.99 L 38,45.85 c -0.66,0.78 -1.42,1.6 -2.27,2.47 -1.96,2.01 -1.83,3.44 -1.58,4.11 0.2,0.53 0.61,0.92 0.99,0.95 0.01,0 0.01,0 0.02,0 0.69,0 4.01,-2.93 6,-4.76 l 2.76,2.41 v 0.09 6.56 l 6.35,5.84 h -20.9 c -0.14,0 -0.25,0.11 -0.25,0.25 0,0.14 0.11,0.25 0.25,0.25 h 17.57 3.87 0.37 0.37 0.34 0.25 0.25 0.63 v 0 h 4.93 1.82 0.76 2.58 10.25 c 0.14,0 0.25,-0.11 0.25,-0.25 0,-0.14 -0.12,-0.24 -0.25,-0.24 z M 27.51,29.24 C 24.83,27.27 21.29,22.47 20.01,17.45 19.48,15.36 16.99,12.74 14.5,10.4 17.77,7.57 21.56,5.33 25.71,3.86 c 2.53,3.52 5.16,7.15 5.97,7.74 2.48,1.82 4.58,3.29 6.27,4.47 4.2,2.93 6.3,4.41 7.4,6.34 0.52,0.91 1.4,2.3 2.34,3.78 1.93,3.03 4.33,6.8 4.6,8.11 0.41,2 -1.4,18.04 -2.12,18.87 -0.05,0.06 -0.13,0.13 -0.28,0.11 -0.05,0 -0.1,-0.02 -0.17,-0.04 -0.27,-0.11 -0.6,-0.43 -0.91,-0.9 -0.59,-0.89 -1.12,-2.36 -1.02,-4.21 0.03,-0.6 0.1,-1.29 0.17,-2.05 0.24,-2.59 0.53,-5.8 -0.02,-8.65 -0.05,-0.27 -0.11,-0.53 -0.18,-0.79 -0.31,-1.2 -0.79,-2.32 -1.52,-3.28 -2.56,-3.34 -8.21,-8.34 -11.26,-8.59 -0.08,-0.01 -0.16,-0.01 -0.24,-0.01 -0.54,0 -0.97,0.16 -1.3,0.47 -1.12,1.05 0.51,4.13 2.4,7.69 0.8,1.51 1.64,3.09 2.27,4.54 0.08,0.19 0.16,0.37 0.24,0.56 0.74,1.82 1.08,3.37 0.48,4.19 -0.07,0.09 -0.14,0.18 -0.24,0.25 -0.13,0.1 -0.27,0.14 -0.42,0.14 -0.06,0 -0.11,0.01 -0.17,0 -0.2,-0.03 -0.42,-0.13 -0.65,-0.28 -0.34,-0.21 -0.7,-0.54 -1.08,-0.95 C 36,41.08 35.72,40.76 35.44,40.4 35.34,40.27 35.23,40.14 35.13,40 34.33,38.96 33.5,37.72 32.7,36.49 32.61,36.34 32.51,36.2 32.42,36.05 32.15,35.63 31.89,35.22 31.63,34.82 31.36,34.4 31.11,34 30.85,33.61 30.76,33.47 30.66,33.32 30.57,33.18 29.36,31.33 28.31,29.82 27.51,29.24 Z m 14.47,10.84 h -0.01 c 0.03,-0.04 0.06,-0.09 0.09,-0.13 1.19,-2 2.21,-4.94 0.3,-7.52 -0.08,-0.11 -0.24,-0.13 -0.35,-0.05 -0.11,0.08 -0.13,0.24 -0.05,0.35 1.75,2.36 0.79,5.09 -0.32,6.97 -0.42,0.71 -1.15,1.39 -2.04,2.02 0.22,-1.07 -0.2,-2.56 -0.91,-4.23 1.23,-2.59 -0.5,-5.44 -0.52,-5.48 -0.07,-0.12 -0.23,-0.15 -0.34,-0.08 -0.12,0.07 -0.15,0.23 -0.08,0.34 0.08,0.13 1.45,2.4 0.67,4.6 -0.6,-1.33 -1.36,-2.76 -2.11,-4.17 -1.64,-3.1 -3.34,-6.3 -2.5,-7.09 0.27,-0.25 0.66,-0.36 1.15,-0.32 2.91,0.23 8.4,5.13 10.9,8.39 0.8,1.05 1.29,2.32 1.57,3.7 -1.24,2.61 -3.84,7.93 -5.03,9.37 l -2.63,-2.3 c 1.28,-1.76 2.04,-3.22 2.21,-4.37 z m -2.6,4.03 -1.11,-0.97 c 0.02,-0.01 0.05,-0.03 0.07,-0.04 0.21,-0.03 0.4,-0.1 0.58,-0.24 0.1,-0.08 0.19,-0.18 0.27,-0.28 0.78,-0.49 1.46,-1.01 2.01,-1.56 -0.34,0.89 -0.95,1.92 -1.82,3.09 z m 8.18,-5.88 c 0.37,2.61 0.11,5.48 -0.11,7.82 -0.07,0.77 -0.14,1.47 -0.17,2.07 -0.07,1.3 0.17,2.44 0.53,3.37 l -5.06,-4.41 c 1.18,-1.42 3.48,-6.08 4.81,-8.85 z m -13.44,1.28 -2.56,-2.24 c 0.26,-0.14 0.51,-0.29 0.74,-0.46 0.61,0.95 1.22,1.87 1.82,2.7 z m -4.84,-4.82 c 0.44,-0.19 0.84,-0.44 1.19,-0.72 0.24,0.38 0.49,0.76 0.73,1.15 0.27,0.42 0.54,0.85 0.81,1.27 -0.27,0.19 -0.56,0.37 -0.87,0.53 l -2.36,-2.06 c 0.19,-0.06 0.36,-0.11 0.5,-0.17 z m -6.35,3.7 c -0.09,-0.46 -0.03,-0.86 0.18,-1.22 0.5,-0.84 1.75,-1.31 3.03,-1.66 l 2.58,2.25 c -2.09,0.5 -4.35,0.59 -5.79,0.63 z m 8.34,7.37 c -0.85,0.34 -1.6,0.64 -2.24,0.92 -0.5,-2.45 1.6,-3.7 4.14,-5.04 l 2.55,2.23 c -1.5,0.71 -3.07,1.34 -4.45,1.89 z m 3.91,7.13 c -0.14,-0.01 -0.42,-0.22 -0.57,-0.63 -0.17,-0.45 -0.36,-1.7 1.47,-3.59 0.85,-0.88 1.61,-1.71 2.28,-2.49 l 2.42,2.12 c -2.1,1.95 -5.11,4.52 -5.6,4.59 z m 15.83,10.64 -6.58,-6.06 v -6 l 7.4,6.46 0.07,5.6 z m 1.23,-5.9 C 52.23,57.62 52.22,57.62 52.22,57.62 L 41.53,48.28 41.16,47.95 38.69,45.79 38.31,45.46 36.62,44 36.21,43.64 33.64,41.39 33.24,41.04 29.77,38.01 29.3,37.6 26.73,35.35 26.27,34.95 12.09,22.57 c -0.12,-0.11 -0.2,-0.26 -0.21,-0.42 -0.01,-0.16 0.04,-0.32 0.15,-0.45 0.11,-0.12 0.26,-0.2 0.42,-0.21 0.17,-0.01 0.32,0.04 0.45,0.15 l 14.85,12.97 0.46,0.4 2.44,2.13 0.43,0.37 3.33,2.91 0.4,0.35 1.13,0.98 c 0.37,0.39 0.73,0.7 1.07,0.93 l 0.4,0.35 0.4,0.35 1.28,1.12 0.38,0.33 2.59,2.26 0.38,0.33 6.03,5.27 c 0.35,0.51 0.73,0.87 1.08,1.01 0.03,0.01 0.07,0.01 0.1,0.02 l 3.39,2.96 c 0.12,0.11 0.2,0.26 0.21,0.42 0.01,0.16 -0.04,0.32 -0.15,0.45 -0.11,0.12 -0.26,0.2 -0.42,0.21 -0.12,0.01 -0.24,-0.03 -0.35,-0.1 -0.04,0 -0.07,-0.01 -0.09,-0.03 z"
       id="path973"
       inkscape:connector-curvature="0"
       clip-path="none" /></clipPath></defs><sodipodi:namedview
   pagecolor="#ffffff"
   bordercolor="#666666"
   borderopacity="1"
   objecttolerance="10"
   gridtolerance="10"
   guidetolerance="10"
   inkscape:pageopacity="0"
   inkscape:pageshadow="2"
   inkscape:window-width="1600"
   inkscape:window-height="835"
   id="namedview33"
   showgrid="false"
   fit-margin-top="0"
   fit-margin-left="0"
   fit-margin-right="0"
   fit-margin-bottom="0"
   inkscape:zoom="8"
   inkscape:cx="48.735547"
   inkscape:cy="31.188603"
   inkscape:window-x="0"
   inkscape:window-y="0"
   inkscape:window-maximized="1"
   inkscape:current-layer="g30" />
<style
   type="text/css"
   id="style2">
	.st0{fill:#FE330A;stroke:#0E0D0D;stroke-width:0.5;stroke-miterlimit:10;}
	.st1{fill:#FFFFFF;}
	.st2{fill:none;stroke:#000000;stroke-width:0.5;stroke-miterlimit:10;}
	.st3{fill:#FFFF01;stroke:#000000;stroke-width:0.5;stroke-miterlimit:10;}
	.st4{fill:#FFFFFF;stroke:#000000;stroke-width:0.5;stroke-miterlimit:10;}
	.st5{fill:#FFFFFF;stroke:#000000;stroke-width:3;stroke-miterlimit:10;}
	.st6{fill:#FFFFFF;stroke:#000000;stroke-miterlimit:10;}
	.st7{fill:none;stroke:#000000;stroke-width:0.4724;stroke-miterlimit:10;}
	.st8{fill:none;}
	.st9{fill:#FFFFFF;stroke:#000000;stroke-width:0.5;stroke-linecap:round;stroke-miterlimit:10;}
</style>
<g
   id="g30"
   transform="translate(1.7608045,2.1617612)">
	<path
   style="color:#000000;clip-rule:nonzero;display:inline;overflow:visible;visibility:visible;opacity:1;isolation:auto;mix-blend-mode:normal;color-interpolation:sRGB;color-interpolation-filters:linearRGB;solid-color:#000000;solid-opacity:1;fill:#ffffff;fill-opacity:1;fill-rule:evenodd;stroke:#ffffff;stroke-width:0.1;stroke-linecap:butt;stroke-linejoin:miter;stroke-miterlimit:4;stroke-dasharray:none;stroke-dashoffset:0;stroke-opacity:1;color-rendering:auto;image-rendering:auto;shape-rendering:auto;text-rendering:auto;enable-background:accumulate"
   id="path934-2"
   sodipodi:type="arc"
   sodipodi:cx="37.33934"
   sodipodi:cy="36.938385"
   sodipodi:rx="39.040611"
   sodipodi:ry="39.040611"
   sodipodi:start="0.41960857"
   sodipodi:end="0.41935142"
   d="M 72.993119,52.843648 A 39.040611,39.040611 0 0 1 21.43637,72.593186 39.040611,39.040611 0 0 1 1.6835166,21.037707 39.040611,39.040611 0 0 1 53.237726,1.2815392 39.040611,39.040611 0 0 1 72.997208,52.834479 L 37.33934,36.938385 Z" /><path
   style="color:#000000;clip-rule:nonzero;display:inline;overflow:visible;visibility:visible;opacity:1;isolation:auto;mix-blend-mode:normal;color-interpolation:sRGB;color-interpolation-filters:linearRGB;solid-color:#000000;solid-opacity:1;fill:#000000;fill-opacity:1;fill-rule:evenodd;stroke:#000000;stroke-width:0.1;stroke-linecap:butt;stroke-linejoin:miter;stroke-miterlimit:4;stroke-dasharray:none;stroke-dashoffset:0;stroke-opacity:1;color-rendering:auto;image-rendering:auto;shape-rendering:auto;text-rendering:auto;enable-background:accumulate"
   id="path934"
   sodipodi:type="arc"
   sodipodi:cx="37.33934"
   sodipodi:cy="36.938385"
   sodipodi:rx="39.040611"
   sodipodi:ry="39.040611"
   sodipodi:start="0.41960857"
   sodipodi:end="0.41935142"
   d="M 72.993119,52.843648 A 39.040611,39.040611 0 0 1 21.43637,72.593186 39.040611,39.040611 0 0 1 1.6835166,21.037707 39.040611,39.040611 0 0 1 53.237726,1.2815392 39.040611,39.040611 0 0 1 72.997208,52.834479 L 37.33934,36.938385 Z"
   clip-path="url(#clipPath971)" /><g
   id="g26">
		<path
   class="st8"
   d="m 52.67,57.77 c 0.16,-0.01 0.31,-0.09 0.42,-0.21 0.11,-0.12 0.16,-0.28 0.15,-0.45 -0.01,-0.16 -0.09,-0.31 -0.21,-0.42 L 49.64,53.73 C 49.61,53.72 49.57,53.72 49.54,53.71 49.2,53.57 48.82,53.21 48.46,52.7 L 42.43,47.43 42.05,47.1 39.46,44.84 39.08,44.51 37.8,43.39 37.4,43.04 37,42.69 C 36.66,42.46 36.3,42.14 35.93,41.76 L 34.8,40.78 34.4,40.43 31.07,37.52 30.64,37.15 28.2,35.02 27.74,34.62 12.89,21.64 c -0.12,-0.11 -0.27,-0.16 -0.45,-0.15 -0.16,0.01 -0.31,0.09 -0.42,0.21 -0.11,0.12 -0.16,0.28 -0.15,0.45 0.01,0.16 0.09,0.31 0.21,0.42 l 14.19,12.39 0.46,0.4 2.57,2.25 0.47,0.41 3.47,3.03 0.4,0.35 2.57,2.25 0.41,0.35 1.69,1.47 0.38,0.33 2.47,2.16 0.37,0.33 10.69,9.34 c 0.01,0.01 0.02,0.01 0.02,0.01 0.02,0.02 0.05,0.03 0.07,0.04 0.11,0.06 0.23,0.1 0.36,0.09 z"
   id="path4"
   inkscape:connector-curvature="0"
   style="fill:none" />
		<polygon
   class="st8"
   points="44.42,51.47 44.42,57.47 51.01,63.53 51.88,63.53 51.82,57.93 "
   id="polygon6"
   style="fill:none" />
		<path
   class="st8"
   d="m 20.01,17.46 c 1.29,5.01 4.82,9.81 7.5,11.79 0.79,0.58 1.84,2.09 3.06,3.96 0.09,0.14 0.18,0.28 0.28,0.43 0.25,0.39 0.51,0.8 0.78,1.21 0.26,0.4 0.52,0.81 0.79,1.23 0.09,0.15 0.19,0.29 0.28,0.44 0.8,1.24 1.63,2.47 2.43,3.51 0.1,0.14 0.21,0.27 0.31,0.4 0.29,0.36 0.56,0.68 0.83,0.97 0.38,0.41 0.75,0.73 1.08,0.95 0.23,0.15 0.45,0.24 0.65,0.28 0.06,0.01 0.12,0 0.17,0 0.15,-0.01 0.3,-0.04 0.42,-0.14 0.09,-0.07 0.17,-0.16 0.24,-0.25 0.6,-0.82 0.26,-2.37 -0.48,-4.19 -0.07,-0.18 -0.15,-0.37 -0.24,-0.56 -0.63,-1.45 -1.47,-3.03 -2.27,-4.54 -1.89,-3.56 -3.52,-6.64 -2.4,-7.69 0.33,-0.31 0.77,-0.47 1.3,-0.47 0.08,0 0.16,0 0.24,0.01 3.04,0.24 8.7,5.25 11.26,8.59 0.73,0.95 1.21,2.07 1.52,3.28 0.07,0.26 0.13,0.53 0.18,0.79 0.55,2.85 0.26,6.06 0.02,8.65 -0.07,0.76 -0.13,1.45 -0.17,2.05 -0.1,1.84 0.43,3.31 1.02,4.21 0.31,0.47 0.64,0.79 0.91,0.9 0.06,0.03 0.12,0.04 0.17,0.04 0.14,0.01 0.23,-0.05 0.28,-0.11 0.72,-0.83 2.53,-16.87 2.12,-18.87 -0.27,-1.31 -2.67,-5.08 -4.6,-8.11 -0.94,-1.47 -1.82,-2.86 -2.34,-3.78 -1.1,-1.93 -3.2,-3.41 -7.4,-6.34 -1.69,-1.18 -3.8,-2.65 -6.27,-4.47 -0.8,-0.59 -3.44,-4.22 -5.97,-7.74 -4.15,1.48 -7.94,3.71 -11.21,6.54 2.5,2.31 4.98,4.94 5.51,7.03 z"
   id="path8"
   inkscape:connector-curvature="0"
   style="fill:none" />
		<path
   class="st8"
   d="m 39.38,44.11 c 0.87,-1.17 1.48,-2.21 1.81,-3.09 -0.55,0.55 -1.23,1.07 -2.01,1.56 -0.08,0.1 -0.17,0.19 -0.27,0.28 -0.17,0.14 -0.37,0.21 -0.58,0.24 -0.02,0.01 -0.05,0.03 -0.07,0.04 z"
   id="path10"
   inkscape:connector-curvature="0"
   style="fill:none" />
		<path
   class="st8"
   d="m 32.29,36.81 c -0.23,0.17 -0.48,0.32 -0.74,0.46 l 2.56,2.24 c -0.59,-0.83 -1.2,-1.75 -1.82,-2.7 z"
   id="path12"
   inkscape:connector-curvature="0"
   style="fill:none" />
		<path
   class="st8"
   d="m 47.82,51.48 c -0.37,-0.93 -0.6,-2.07 -0.53,-3.37 0.03,-0.6 0.1,-1.3 0.17,-2.07 0.22,-2.34 0.48,-5.21 0.11,-7.82 -1.33,2.78 -3.64,7.43 -4.8,8.84 z"
   id="path14"
   inkscape:connector-curvature="0"
   style="fill:none" />
		<path
   class="st8"
   d="m 41.63,39.69 c 1.12,-1.87 2.08,-4.6 0.32,-6.97 -0.08,-0.11 -0.06,-0.27 0.05,-0.35 0.11,-0.08 0.27,-0.06 0.35,0.05 1.92,2.58 0.9,5.52 -0.3,7.52 -0.03,0.04 -0.06,0.09 -0.09,0.13 h 0.01 c -0.17,1.15 -0.93,2.61 -2.22,4.36 l 2.63,2.3 c 1.19,-1.44 3.79,-6.75 5.03,-9.37 -0.28,-1.37 -0.77,-2.65 -1.57,-3.7 -2.5,-3.27 -7.99,-8.16 -10.9,-8.39 -0.5,-0.04 -0.89,0.07 -1.15,0.32 -0.84,0.79 0.86,4 2.5,7.09 0.75,1.41 1.5,2.84 2.11,4.17 0.78,-2.2 -0.59,-4.47 -0.67,-4.6 -0.07,-0.12 -0.04,-0.27 0.08,-0.34 0.12,-0.07 0.27,-0.04 0.34,0.08 0.02,0.04 1.74,2.89 0.52,5.48 0.71,1.67 1.13,3.16 0.91,4.23 0.9,-0.62 1.62,-1.29 2.05,-2.01 z"
   id="path16"
   inkscape:connector-curvature="0"
   style="fill:none" />
		<path
   class="st8"
   d="m 32.01,36.38 c -0.27,-0.42 -0.54,-0.84 -0.81,-1.27 -0.25,-0.39 -0.49,-0.77 -0.73,-1.15 -0.35,0.28 -0.74,0.53 -1.19,0.72 -0.14,0.06 -0.32,0.12 -0.5,0.17 l 2.36,2.06 c 0.31,-0.15 0.6,-0.33 0.87,-0.53 z"
   id="path18"
   inkscape:connector-curvature="0"
   style="fill:none" />
		<path
   class="st8"
   d="m 29.03,46.68 c 0.63,-0.28 1.38,-0.58 2.24,-0.92 1.38,-0.55 2.95,-1.19 4.46,-1.89 l -2.55,-2.23 c -2.55,1.34 -4.65,2.59 -4.15,5.04 z"
   id="path20"
   inkscape:connector-curvature="0"
   style="fill:none" />
		<path
   class="st8"
   d="m 36.08,48.68 c -1.83,1.88 -1.64,3.13 -1.47,3.59 0.15,0.41 0.43,0.62 0.57,0.63 0.48,-0.07 3.49,-2.64 5.61,-4.59 l -2.42,-2.12 c -0.68,0.78 -1.43,1.61 -2.29,2.49 z"
   id="path22"
   inkscape:connector-curvature="0"
   style="fill:none" />
		<path
   class="st8"
   d="m 23.11,37.17 c -0.21,0.36 -0.27,0.76 -0.18,1.22 1.44,-0.04 3.7,-0.13 5.8,-0.63 l -2.58,-2.25 c -1.29,0.35 -2.54,0.82 -3.04,1.66 z"
   id="path24"
   inkscape:connector-curvature="0"
   style="fill:none" />
	</g>
	
<path
   d="m 293.5365,23.704 c 21.296,0 38.621,17.325 38.621,38.621 0,10.978 -4.609,20.889 -11.99,27.929 l -3.278,2.805 3.63,-2.387 v 0 c 7.491,-7.139 12.177,-17.204 12.177,-28.347 0,-21.593 -17.567,-39.171 -39.171,-39.171 -4.444,0 -8.712,0.759 -12.705,2.123 -0.088,0.033 -0.187,0.055 -0.275,0.088 -0.088,0.033 -0.187,0.055 -0.275,0.088 -4.587,1.65 -8.778,4.147 -12.397,7.293 -0.066,0.066 -0.143,0.121 -0.209,0.176 -0.066,0.066 -0.143,0.121 -0.209,0.187 -8.008,7.183 -13.079,17.611 -13.079,29.216 0,21.593 17.567,39.171 39.171,39.171 3.817,0 7.502,-0.561 11,-1.584 2.123,-0.627 4.169,-1.408 6.127,-2.365 2.299,-1.122 4.455,-2.464 6.479,-3.993 v 0 l 0.033,-0.022 c 0.022,-0.022 0.044,-0.033 0.066,-0.055 v 0 l 3.267,-2.805 -3.63,2.387 c -1.936,1.474 -4.026,2.772 -6.226,3.872 -2.123,1.056 -4.356,1.914 -6.677,2.574 -3.322,0.935 -6.831,1.452 -10.45,1.452 -21.296,0 -38.621,-17.325 -38.621,-38.621 0,-11.451 5.016,-21.747 12.958,-28.831 14.05028,-11.088312 22.98785,-9.014246 25.663,-9.801 z"
   id="path28-9"
   inkscape:connector-curvature="0"
   style="fill:#800000;stroke:#800000;stroke-width:1.10000002"
   sodipodi:nodetypes="csccccsscsccccsscccccccccccsscc" /></g>
</svg>