<?xml version="1.0" encoding="utf-8"?>
<!-- Generator: Adobe Illustrator 25.2.1, SVG Export Plug-In . SVG Version: 6.00 Build 0)  -->
<svg version="1.1" id="Ebene_1" xmlns="http://www.w3.org/2000/svg" xmlns:xlink="http://www.w3.org/1999/xlink" x="0px" y="0px"
	 viewBox="0 0 75.45 73.89" style="enable-background:new 0 0 75.45 73.89;" xml:space="preserve">
<style type="text/css">
	.st0{fill:#FE330A;stroke:#0E0D0D;stroke-width:0.5;stroke-miterlimit:10;}
	.st1{fill:#FFFFFF;}
	.st2{fill:none;stroke:#000000;stroke-width:0.5;stroke-miterlimit:10;}
	.st3{fill:#FFFF01;stroke:#000000;stroke-width:0.5;stroke-miterlimit:10;}
	.st4{fill:#FFFFFF;stroke:#000000;stroke-width:0.5;stroke-miterlimit:10;}
	.st5{fill:#FFFFFF;stroke:#000000;stroke-width:3;stroke-miterlimit:10;}
	.st6{fill:#FFFFFF;stroke:#000000;stroke-miterlimit:10;}
	.st7{fill:none;stroke:#000000;stroke-width:0.4724;stroke-miterlimit:10;}
	.st8{fill:none;}
	.st9{fill:#FFFFFF;stroke:#000000;stroke-width:0.5;stroke-linecap:round;stroke-miterlimit:10;}
</style>
<g>
	<g>
		<path class="st8" d="M52.67,57.77c0.16-0.01,0.31-0.09,0.42-0.21c0.11-0.12,0.16-0.28,0.15-0.45c-0.01-0.16-0.09-0.31-0.21-0.42
			l-3.39-2.96c-0.03-0.01-0.07-0.01-0.1-0.02c-0.34-0.14-0.72-0.5-1.08-1.01l-6.03-5.27l-0.38-0.33l-2.59-2.26l-0.38-0.33
			l-1.28-1.12l-0.4-0.35L37,42.69c-0.34-0.23-0.7-0.55-1.07-0.93l-1.13-0.98l-0.4-0.35l-3.33-2.91l-0.43-0.37l-2.44-2.13l-0.46-0.4
			L12.89,21.64c-0.12-0.11-0.27-0.16-0.45-0.15c-0.16,0.01-0.31,0.09-0.42,0.21c-0.11,0.12-0.16,0.28-0.15,0.45
			c0.01,0.16,0.09,0.31,0.21,0.42l14.19,12.39l0.46,0.4l2.57,2.25l0.47,0.41l3.47,3.03l0.4,0.35l2.57,2.25L36.62,44l1.69,1.47
			l0.38,0.33l2.47,2.16l0.37,0.33l10.69,9.34c0.01,0.01,0.02,0.01,0.02,0.01c0.02,0.02,0.05,0.03,0.07,0.04
			C52.42,57.74,52.54,57.78,52.67,57.77z"/>
		<polygon class="st8" points="51.82,57.93 44.42,51.47 44.42,57.47 51.01,63.53 51.88,63.53 		"/>
		<path class="st8" d="M20.01,17.46c1.29,5.01,4.82,9.81,7.5,11.79c0.79,0.58,1.84,2.09,3.06,3.96c0.09,0.14,0.18,0.28,0.28,0.43
			c0.25,0.39,0.51,0.8,0.78,1.21c0.26,0.4,0.52,0.81,0.79,1.23c0.09,0.15,0.19,0.29,0.28,0.44c0.8,1.24,1.63,2.47,2.43,3.51
			c0.1,0.14,0.21,0.27,0.31,0.4c0.29,0.36,0.56,0.68,0.83,0.97c0.38,0.41,0.75,0.73,1.08,0.95c0.23,0.15,0.45,0.24,0.65,0.28
			c0.06,0.01,0.12,0,0.17,0c0.15-0.01,0.3-0.04,0.42-0.14c0.09-0.07,0.17-0.16,0.24-0.25c0.6-0.82,0.26-2.37-0.48-4.19
			c-0.07-0.18-0.15-0.37-0.24-0.56c-0.63-1.45-1.47-3.03-2.27-4.54c-1.89-3.56-3.52-6.64-2.4-7.69c0.33-0.31,0.77-0.47,1.3-0.47
			c0.08,0,0.16,0,0.24,0.01c3.04,0.24,8.7,5.25,11.26,8.59c0.73,0.95,1.21,2.07,1.52,3.28c0.07,0.26,0.13,0.53,0.18,0.79
			c0.55,2.85,0.26,6.06,0.02,8.65c-0.07,0.76-0.13,1.45-0.17,2.05c-0.1,1.84,0.43,3.31,1.02,4.21c0.31,0.47,0.64,0.79,0.91,0.9
			c0.06,0.03,0.12,0.04,0.17,0.04c0.14,0.01,0.23-0.05,0.28-0.11c0.72-0.83,2.53-16.87,2.12-18.87c-0.27-1.31-2.67-5.08-4.6-8.11
			c-0.94-1.47-1.82-2.86-2.34-3.78c-1.1-1.93-3.2-3.41-7.4-6.34c-1.69-1.18-3.8-2.65-6.27-4.47c-0.8-0.59-3.44-4.22-5.97-7.74
			c-4.15,1.48-7.94,3.71-11.21,6.54C17,12.74,19.48,15.37,20.01,17.46z"/>
		<path class="st8" d="M39.38,44.11c0.87-1.17,1.48-2.21,1.81-3.09c-0.55,0.55-1.23,1.07-2.01,1.56c-0.08,0.1-0.17,0.19-0.27,0.28
			c-0.17,0.14-0.37,0.21-0.58,0.24c-0.02,0.01-0.05,0.03-0.07,0.04L39.38,44.11z"/>
		<path class="st8" d="M32.29,36.81c-0.23,0.17-0.48,0.32-0.74,0.46l2.56,2.24C33.52,38.68,32.91,37.76,32.29,36.81z"/>
		<path class="st8" d="M47.82,51.48c-0.37-0.93-0.6-2.07-0.53-3.37c0.03-0.6,0.1-1.3,0.17-2.07c0.22-2.34,0.48-5.21,0.11-7.82
			c-1.33,2.78-3.64,7.43-4.8,8.84L47.82,51.48z"/>
		<path class="st8" d="M41.63,39.69c1.12-1.87,2.08-4.6,0.32-6.97c-0.08-0.11-0.06-0.27,0.05-0.35c0.11-0.08,0.27-0.06,0.35,0.05
			c1.92,2.58,0.9,5.52-0.3,7.52c-0.03,0.04-0.06,0.09-0.09,0.13l0.01,0c-0.17,1.15-0.93,2.61-2.22,4.36l2.63,2.3
			c1.19-1.44,3.79-6.75,5.03-9.37c-0.28-1.37-0.77-2.65-1.57-3.7c-2.5-3.27-7.99-8.16-10.9-8.39c-0.5-0.04-0.89,0.07-1.15,0.32
			c-0.84,0.79,0.86,4,2.5,7.09c0.75,1.41,1.5,2.84,2.11,4.17c0.78-2.2-0.59-4.47-0.67-4.6c-0.07-0.12-0.04-0.27,0.08-0.34
			c0.12-0.07,0.27-0.04,0.34,0.08c0.02,0.04,1.74,2.89,0.52,5.48c0.71,1.67,1.13,3.16,0.91,4.23C40.48,41.08,41.2,40.41,41.63,39.69
			z"/>
		<path class="st8" d="M32.01,36.38c-0.27-0.42-0.54-0.84-0.81-1.27c-0.25-0.39-0.49-0.77-0.73-1.15c-0.35,0.28-0.74,0.53-1.19,0.72
			c-0.14,0.06-0.32,0.12-0.5,0.17l2.36,2.06C31.45,36.76,31.74,36.58,32.01,36.38z"/>
		<path class="st8" d="M29.03,46.68c0.63-0.28,1.38-0.58,2.24-0.92c1.38-0.55,2.95-1.19,4.46-1.89l-2.55-2.23
			C30.63,42.98,28.53,44.23,29.03,46.68z"/>
		<path class="st8" d="M36.08,48.68c-1.83,1.88-1.64,3.13-1.47,3.59c0.15,0.41,0.43,0.62,0.57,0.63c0.48-0.07,3.49-2.64,5.61-4.59
			l-2.42-2.12C37.69,46.97,36.94,47.8,36.08,48.68z"/>
		<path class="st8" d="M23.11,37.17c-0.21,0.36-0.27,0.76-0.18,1.22c1.44-0.04,3.7-0.13,5.8-0.63l-2.58-2.25
			C24.86,35.86,23.61,36.33,23.11,37.17z"/>
	</g>
	<path d="M73.36,63.53H62.68H61.1h-0.76h-2.82h-5.13v0l-0.06-5.31c0.1,0.03,0.2,0.05,0.3,0.05c0.03,0,0.05,0,0.08,0
		c0.3-0.02,0.57-0.16,0.76-0.38s0.29-0.51,0.27-0.81c-0.02-0.3-0.16-0.57-0.38-0.76l-3.03-2.65c0.08-0.05,0.15-0.09,0.22-0.17
		c0.97-1.11,2.62-17.41,2.24-19.3c-0.29-1.4-2.61-5.06-4.67-8.28c-0.93-1.47-1.82-2.85-2.33-3.75c-1.15-2.03-3.29-3.53-7.55-6.5
		c-1.69-1.18-3.79-2.65-6.27-4.47c-0.73-0.54-3.37-4.17-5.77-7.5c3.53-1.2,7.31-1.86,11.24-1.86c19.36,0,35.11,15.75,35.11,35.11
		c0,9.98-4.19,18.99-10.9,25.39l-0.4,0.38h0.72l0,0c6.81-6.49,11.07-15.64,11.07-25.77c0-19.63-15.97-35.61-35.61-35.61
		c-4.04,0-7.92,0.69-11.55,1.93c-0.08,0.03-0.17,0.05-0.25,0.08c-0.08,0.03-0.17,0.05-0.25,0.08c-4.17,1.5-7.98,3.77-11.27,6.63
		c-0.06,0.06-0.13,0.11-0.19,0.16c-0.06,0.06-0.13,0.11-0.19,0.17C6.45,16.92,1.84,26.4,1.84,36.95c0,19.63,15.97,35.61,35.61,35.61
		c3.47,0,6.82-0.51,10-1.44c1.93-0.57,3.79-1.28,5.57-2.15c2.09-1.02,4.05-2.24,5.89-3.63l0,0l0.03-0.02
		c0.02-0.02,0.04-0.03,0.06-0.05l0,0l0.48-0.38l-0.81,0c-1.76,1.34-3.66,2.52-5.66,3.52c-1.93,0.96-3.96,1.74-6.07,2.34
		c-3.02,0.85-6.21,1.32-9.5,1.32c-19.36,0-35.11-15.75-35.11-35.11c0-10.41,4.56-19.77,11.78-26.21c2.41,2.26,4.91,4.88,5.41,6.84
		c1.31,5.13,4.94,10.04,7.69,12.06c0.73,0.54,1.8,2.08,2.98,3.9c-0.33,0.27-0.7,0.51-1.11,0.68c-0.2,0.08-0.46,0.16-0.76,0.24
		l-15.11-13.2C13,21.07,12.71,20.98,12.41,21c-0.3,0.02-0.57,0.16-0.76,0.38c-0.2,0.22-0.29,0.51-0.27,0.81
		c0.02,0.3,0.16,0.57,0.38,0.76L25.7,35.12c-1.27,0.37-2.47,0.89-3.02,1.79c-0.31,0.52-0.38,1.13-0.19,1.8l0.05,0.19l0.2-0.01
		c1.63-0.05,4.17-0.13,6.46-0.72l3.57,3.12c-2.66,1.41-4.96,2.85-4.15,5.8l0.08,0.28l0.27-0.12c0.68-0.3,1.52-0.64,2.49-1.03
		c1.45-0.58,3.1-1.25,4.68-1.99l1.86,1.62c-0.66,0.78-1.42,1.6-2.27,2.47c-1.96,2.01-1.83,3.44-1.58,4.11
		c0.2,0.53,0.61,0.92,0.99,0.95c0.01,0,0.01,0,0.02,0c0.69,0,4.01-2.93,6-4.76l2.76,2.41v0.09v6.56l6.35,5.84H29.37
		c-0.14,0-0.25,0.11-0.25,0.25s0.11,0.25,0.25,0.25h17.57h3.87h0.37h0.37h0.34h0.25h0.25h0.63v0h4.93h1.82h0.76h2.58h10.25
		c0.14,0,0.25-0.11,0.25-0.25S73.49,63.53,73.36,63.53z M27.51,29.24c-2.68-1.97-6.22-6.77-7.5-11.79
		c-0.53-2.09-3.02-4.71-5.51-7.05c3.27-2.83,7.06-5.07,11.21-6.54c2.53,3.52,5.16,7.15,5.97,7.74c2.48,1.82,4.58,3.29,6.27,4.47
		c4.2,2.93,6.3,4.41,7.4,6.34c0.52,0.91,1.4,2.3,2.34,3.78c1.93,3.03,4.33,6.8,4.6,8.11c0.41,2-1.4,18.04-2.12,18.87
		c-0.05,0.06-0.13,0.13-0.28,0.11c-0.05,0-0.1-0.02-0.17-0.04c-0.27-0.11-0.6-0.43-0.91-0.9c-0.59-0.89-1.12-2.36-1.02-4.21
		c0.03-0.6,0.1-1.29,0.17-2.05c0.24-2.59,0.53-5.8-0.02-8.65c-0.05-0.27-0.11-0.53-0.18-0.79c-0.31-1.2-0.79-2.32-1.52-3.28
		c-2.56-3.34-8.21-8.34-11.26-8.59c-0.08-0.01-0.16-0.01-0.24-0.01c-0.54,0-0.97,0.16-1.3,0.47c-1.12,1.05,0.51,4.13,2.4,7.69
		c0.8,1.51,1.64,3.09,2.27,4.54c0.08,0.19,0.16,0.37,0.24,0.56c0.74,1.82,1.08,3.37,0.48,4.19c-0.07,0.09-0.14,0.18-0.24,0.25
		c-0.13,0.1-0.27,0.14-0.42,0.14c-0.06,0-0.11,0.01-0.17,0c-0.2-0.03-0.42-0.13-0.65-0.28c-0.34-0.21-0.7-0.54-1.08-0.95
		c-0.27-0.29-0.55-0.61-0.83-0.97c-0.1-0.13-0.21-0.26-0.31-0.4c-0.8-1.04-1.63-2.28-2.43-3.51c-0.09-0.15-0.19-0.29-0.28-0.44
		c-0.27-0.42-0.53-0.83-0.79-1.23c-0.27-0.42-0.52-0.82-0.78-1.21c-0.09-0.14-0.19-0.29-0.28-0.43
		C29.36,31.33,28.31,29.82,27.51,29.24z M41.98,40.08l-0.01,0c0.03-0.04,0.06-0.09,0.09-0.13c1.19-2,2.21-4.94,0.3-7.52
		c-0.08-0.11-0.24-0.13-0.35-0.05c-0.11,0.08-0.13,0.24-0.05,0.35c1.75,2.36,0.79,5.09-0.32,6.97c-0.42,0.71-1.15,1.39-2.04,2.02
		c0.22-1.07-0.2-2.56-0.91-4.23c1.23-2.59-0.5-5.44-0.52-5.48c-0.07-0.12-0.23-0.15-0.34-0.08c-0.12,0.07-0.15,0.23-0.08,0.34
		c0.08,0.13,1.45,2.4,0.67,4.6c-0.6-1.33-1.36-2.76-2.11-4.17c-1.64-3.1-3.34-6.3-2.5-7.09c0.27-0.25,0.66-0.36,1.15-0.32
		c2.91,0.23,8.4,5.13,10.9,8.39c0.8,1.05,1.29,2.32,1.57,3.7c-1.24,2.61-3.84,7.93-5.03,9.37l-2.63-2.3
		C41.05,42.69,41.81,41.23,41.98,40.08z M39.38,44.11l-1.11-0.97c0.02-0.01,0.05-0.03,0.07-0.04c0.21-0.03,0.4-0.1,0.58-0.24
		c0.1-0.08,0.19-0.18,0.27-0.28c0.78-0.49,1.46-1.01,2.01-1.56C40.86,41.91,40.25,42.94,39.38,44.11z M47.56,38.23
		c0.37,2.61,0.11,5.48-0.11,7.82c-0.07,0.77-0.14,1.47-0.17,2.07c-0.07,1.3,0.17,2.44,0.53,3.37l-5.06-4.41
		C43.93,45.66,46.23,41,47.56,38.23z M34.12,39.51l-2.56-2.24c0.26-0.14,0.51-0.29,0.74-0.46C32.91,37.76,33.52,38.68,34.12,39.51z
		 M29.28,34.69c0.44-0.19,0.84-0.44,1.19-0.72c0.24,0.38,0.49,0.76,0.73,1.15c0.27,0.42,0.54,0.85,0.81,1.27
		c-0.27,0.19-0.56,0.37-0.87,0.53l-2.36-2.06C28.97,34.8,29.14,34.75,29.28,34.69z M22.93,38.39c-0.09-0.46-0.03-0.86,0.18-1.22
		c0.5-0.84,1.75-1.31,3.03-1.66l2.58,2.25C26.63,38.26,24.37,38.35,22.93,38.39z M31.27,45.76c-0.85,0.34-1.6,0.64-2.24,0.92
		c-0.5-2.45,1.6-3.7,4.14-5.04l2.55,2.23C34.22,44.58,32.65,45.21,31.27,45.76z M35.18,52.89c-0.14-0.01-0.42-0.22-0.57-0.63
		c-0.17-0.45-0.36-1.7,1.47-3.59c0.85-0.88,1.61-1.71,2.28-2.49l2.42,2.12C38.68,50.25,35.67,52.82,35.18,52.89z M51.01,63.53
		l-6.58-6.06v-6l7.4,6.46l0.07,5.6H51.01z M52.24,57.63c-0.01-0.01-0.02-0.01-0.02-0.01l-10.69-9.34l-0.37-0.33l-2.47-2.16
		l-0.38-0.33L36.62,44l-0.41-0.36l-2.57-2.25l-0.4-0.35l-3.47-3.03l-0.47-0.41l-2.57-2.25l-0.46-0.4L12.09,22.57
		c-0.12-0.11-0.2-0.26-0.21-0.42c-0.01-0.16,0.04-0.32,0.15-0.45c0.11-0.12,0.26-0.2,0.42-0.21c0.17-0.01,0.32,0.04,0.45,0.15
		l14.85,12.97l0.46,0.4l2.44,2.13l0.43,0.37l3.33,2.91l0.4,0.35l1.13,0.98c0.37,0.39,0.73,0.7,1.07,0.93l0.4,0.35l0.4,0.35
		l1.28,1.12l0.38,0.33l2.59,2.26l0.38,0.33l6.03,5.27c0.35,0.51,0.73,0.87,1.08,1.01c0.03,0.01,0.07,0.01,0.1,0.02l3.39,2.96
		c0.12,0.11,0.2,0.26,0.21,0.42c0.01,0.16-0.04,0.32-0.15,0.45c-0.11,0.12-0.26,0.2-0.42,0.21c-0.12,0.01-0.24-0.03-0.35-0.1
		C52.29,57.66,52.26,57.65,52.24,57.63z"/>
</g>
</svg>
